<?xml version="1.0" standalone="no"?>
<!DOCTYPE svg PUBLIC "-//W3C//DTD SVG 20010904//EN"
 "http://www.w3.org/TR/2001/REC-SVG-20010904/DTD/svg10.dtd">
<svg version="1.0" xmlns="http://www.w3.org/2000/svg"
 width="225.000000pt" height="225.000000pt" viewBox="0 0 225.000000 225.000000"
 preserveAspectRatio="xMidYMid meet">

<g transform="translate(0.000000,225.000000) scale(0.100000,-0.100000)"
fill="#000000" stroke="none">
<path d="M775 2164 c-33 -8 -115 -32 -182 -54 -151 -49 -173 -51 -173 -11 0
31 -14 41 -56 41 -32 0 -81 -25 -92 -48 -9 -18 -8 -83 3 -188 5 -45 2 -71 -9
-99 -9 -21 -15 -39 -14 -40 2 -1 13 -7 25 -13 27 -15 73 -106 73 -146 0 -61
-10 -78 -40 -71 -37 8 -94 -17 -116 -50 -12 -19 -18 -45 -17 -82 1 -46 10 -68
57 -152 54 -94 56 -100 56 -171 0 -69 2 -76 27 -96 26 -20 27 -25 16 -53 -9
-25 -9 -31 2 -31 7 0 23 -9 36 -19 l24 -20 -22 -40 -21 -40 36 -52 c27 -39 47
-56 77 -66 36 -11 95 -65 95 -85 0 -4 -39 -9 -87 -10 -96 -3 -93 0 -81 -73 3
-18 -2 -20 -38 -17 -43 3 -74 -15 -74 -44 0 -9 13 -35 29 -58 l30 -43 -85 -13
c-46 -6 -84 -16 -84 -20 0 -4 18 -24 40 -44 44 -40 47 -48 24 -66 -20 -18 -68
-99 -61 -106 6 -6 329 62 366 77 22 9 23 13 18 74 l-5 65 142 0 142 0 39 -40
c39 -40 96 -67 115 -55 13 8 13 -1 -1 -27 -24 -44 22 -98 84 -98 25 0 67 -37
67 -61 0 -8 12 1 26 18 16 21 40 37 67 44 64 17 80 36 73 86 -3 24 -2 42 2 42
42 -7 69 5 106 46 l42 45 147 0 147 0 -7 -27 c-10 -39 -6 -84 9 -99 7 -7 85
-29 173 -48 88 -19 167 -38 176 -41 35 -13 30 19 -11 78 l-43 60 44 38 c24 20
41 40 38 43 -3 4 -35 11 -70 17 -35 5 -74 12 -87 15 l-23 5 30 35 c54 60 35
104 -43 104 -37 0 -42 8 -27 45 15 35 -6 45 -90 45 -51 0 -79 4 -79 11 0 21
68 79 100 85 23 5 40 20 69 63 l38 56 -18 30 c-26 41 -24 53 11 73 26 15 29
21 24 48 -5 25 -1 35 20 51 23 19 25 26 24 95 -2 73 -1 75 52 164 47 77 55 97
58 150 3 46 0 68 -13 87 -22 34 -80 61 -112 52 -33 -8 -43 7 -43 64 0 52 31
123 67 151 25 19 25 20 13 92 -8 45 -10 106 -6 159 6 82 5 89 -15 108 -49 45
-139 36 -139 -14 0 -15 -6 -25 -14 -25 -8 0 -68 16 -133 36 -172 53 -269 73
-349 74 -78 0 -160 -20 -195 -49 -22 -17 -23 -17 -82 13 -53 27 -70 31 -161
33 -64 2 -123 -3 -161 -13z m278 -20 c21 -8 52 -23 68 -34 l29 -21 29 21 c79
56 222 66 371 26 205 -54 320 -92 320 -104 0 -8 -7 -11 -17 -8 -10 2 -70 21
-133 40 -203 62 -241 69 -345 70 -106 1 -155 -15 -198 -62 l-19 -21 -41 30
c-114 83 -235 78 -545 -21 -137 -44 -142 -45 -142 -27 0 7 33 21 78 33 42 12
121 36 175 53 163 51 274 58 370 25z m-655 -22 c20 -13 3 -40 -33 -53 -21 -8
-36 -21 -40 -36 -5 -20 -9 -22 -25 -13 -40 22 -18 83 35 99 39 12 47 12 63 3z
m1600 -25 c26 -24 28 -49 6 -71 -21 -22 -34 -20 -34 4 0 13 -14 27 -40 40 -39
20 -52 44 -27 53 22 8 72 -5 95 -26z m-956 3 c28 -11 66 -33 84 -51 32 -31 32
-31 43 -10 21 38 97 73 170 79 91 6 170 -9 370 -70 91 -27 194 -53 229 -56
l62 -5 0 -40 c0 -22 5 -69 11 -105 13 -74 11 -76 -58 -87 -65 -10 -143 10
-295 76 -75 33 -163 64 -195 70 -101 19 -213 -1 -284 -51 -25 -18 -26 -18 -91
15 -81 40 -183 54 -274 35 -32 -7 -112 -37 -177 -67 -131 -61 -212 -80 -300
-69 l-58 8 8 36 c9 46 9 63 0 132 l-7 55 78 1 c62 1 105 10 224 48 81 25 173
53 205 60 87 21 193 20 255 -4z m-632 -60 c0 -28 -3 -30 -35 -30 -43 0 -47 23
-7 43 39 21 42 20 42 -13z m1548 -14 c3 -12 -5 -16 -32 -16 -33 0 -36 2 -36
30 0 29 0 29 33 15 17 -7 33 -20 35 -29z m-971 -150 c28 -8 77 -25 108 -39
l56 -26 60 30 c124 63 244 62 383 -5 137 -66 226 -182 262 -343 20 -91 15
-285 -11 -403 -41 -190 -179 -520 -217 -520 -10 0 -18 2 -18 4 0 1 22 50 49
107 110 234 164 445 165 644 1 121 -1 135 -28 200 -36 88 -70 137 -135 198
-139 130 -351 159 -481 67 l-28 -20 -68 32 c-62 29 -78 32 -164 33 -113 0
-176 -19 -251 -75 -257 -193 -275 -591 -48 -1056 32 -67 59 -124 59 -128 0 -3
-9 -6 -20 -6 -16 0 -30 20 -64 93 -114 246 -176 486 -176 681 0 173 45 293
149 397 121 121 279 172 418 135z m548 -91 c129 -63 213 -164 257 -309 39
-128 14 -342 -69 -587 -32 -97 -41 -114 -60 -117 -16 -2 -23 2 -23 12 0 9 -4
16 -8 16 -5 0 -7 -13 -4 -29 2 -16 -1 -38 -7 -50 -10 -18 -9 -21 9 -21 12 0
19 -4 15 -9 -3 -5 -19 -9 -35 -9 -20 1 -27 5 -21 12 5 6 10 29 12 51 3 31 -1
45 -18 63 l-21 23 -7 -21 c-6 -17 -12 -20 -36 -15 -22 5 -29 3 -29 -9 0 -10
-9 -16 -25 -16 -23 0 -21 5 40 88 36 48 65 92 65 98 0 6 -15 14 -32 17 -56 9
-92 27 -81 38 8 8 19 6 39 -6 l29 -17 -29 25 c-29 25 -23 42 11 31 16 -6 16
-5 -2 9 -32 24 -9 33 40 15 59 -22 58 -15 -1 11 -48 22 -52 45 -6 36 l27 -5
-27 11 c-39 15 -35 29 10 30 35 1 35 2 8 8 -40 8 -46 31 -9 32 l28 2 -28 4
c-44 7 -26 27 29 34 l49 6 -52 1 c-40 2 -53 6 -53 17 0 9 10 16 28 16 l27 2
-27 4 c-39 6 -35 31 5 36 31 4 31 4 -5 5 -43 2 -49 14 -15 30 21 11 20 11 -5
6 -44 -10 -33 13 17 35 25 11 45 22 45 26 0 3 -17 -2 -37 -11 -21 -9 -44 -17
-52 -18 -24 -2 -23 20 1 32 22 11 22 11 -4 6 -35 -8 -36 8 -2 31 14 9 23 19
20 22 -3 4 -14 -1 -24 -10 -10 -10 -24 -17 -30 -17 -18 0 -14 27 4 34 9 4 14
9 10 13 -3 3 -14 -2 -25 -11 -14 -12 -21 -14 -26 -6 -4 7 9 28 31 51 21 21 35
39 30 39 -4 0 -23 -16 -42 -35 -39 -41 -63 -38 -37 3 17 27 17 27 -3 10 -11
-10 -26 -18 -32 -18 -15 0 -16 17 -2 25 5 3 15 16 20 28 9 17 6 16 -12 -5 -23
-28 -48 -37 -48 -19 0 6 5 13 10 16 6 3 10 12 10 18 0 7 -9 1 -19 -12 -25 -33
-35 -12 -15 34 8 20 13 39 11 41 -3 3 -12 -13 -21 -36 -18 -45 -42 -56 -32
-14 5 17 3 23 -4 19 -5 -3 -10 -13 -10 -21 0 -8 -7 -14 -15 -14 -18 0 -19 9
-5 44 5 14 6 26 1 26 -5 0 -11 -13 -14 -30 -8 -38 -27 -39 -28 -2 -1 27 -1 27
-8 3 -13 -47 -31 -36 -33 21 l-2 53 -3 -52 c-3 -38 -8 -53 -19 -53 -8 0 -15
11 -15 28 l-2 27 -4 -27 c-6 -39 -31 -35 -36 5 -4 31 -4 31 -5 -5 -2 -42 -18
-50 -32 -15 l-10 22 3 -24 c4 -39 -20 -35 -33 6 -7 21 -17 43 -23 48 -7 7 -8
4 -2 -10 23 -63 27 -77 21 -82 -3 -3 -16 2 -27 13 -22 19 -22 19 -10 -3 14
-28 14 -33 -2 -33 -8 0 -20 11 -27 25 -7 14 -15 23 -18 20 -3 -2 3 -16 12 -29
20 -31 20 -36 1 -36 -9 0 -18 7 -21 15 -4 8 -11 15 -17 15 -5 0 -2 -9 7 -19
10 -11 15 -25 11 -31 -5 -8 -20 1 -46 26 -47 45 -53 34 -7 -13 34 -35 31 -56
-5 -34 -22 14 -22 13 -4 -7 25 -27 6 -38 -30 -16 l-28 16 28 -24 c31 -27 26
-40 -12 -32 -24 5 -24 4 -6 -7 28 -17 28 -17 21 -28 -4 -6 -23 -3 -51 9 -25
11 -45 16 -45 11 0 -4 18 -14 40 -21 46 -15 57 -46 13 -36 -27 5 -27 5 -5 -6
30 -15 22 -33 -14 -31 -27 2 -27 1 -5 -5 36 -11 38 -32 4 -33 -27 -1 -27 -1
-4 -8 47 -13 36 -31 -21 -33 l-53 -2 53 -3 c37 -3 52 -8 52 -19 0 -7 -10 -15
-22 -15 l-23 -2 23 -4 c32 -6 28 -33 -5 -34 -21 -1 -23 -3 -8 -6 48 -10 51
-14 25 -29 -23 -14 -23 -14 -2 -9 16 5 22 2 22 -10 0 -14 -10 -20 -69 -41 -8
-2 -12 -7 -9 -9 3 -3 22 2 42 10 43 18 69 10 40 -13 -18 -14 -18 -14 3 -9 27
6 39 -18 15 -33 -13 -8 -11 -9 11 -4 16 4 27 2 27 -4 0 -11 -5 -13 -77 -32
-24 -6 -43 -14 -43 -18 0 -4 27 -44 60 -90 33 -46 60 -86 60 -88 0 -3 -10 -4
-22 -2 -13 2 -22 9 -21 16 2 6 -3 12 -10 12 -8 0 -12 -17 -13 -50 l-1 -50 74
0 c40 0 81 4 91 10 9 5 58 25 109 45 l92 36 38 -19 c21 -11 65 -28 98 -38 33
-10 62 -19 64 -21 2 -1 -6 -11 -19 -21 -22 -17 -24 -17 -74 0 -64 22 -161 23
-223 2 -38 -13 -51 -14 -66 -4 -15 9 -21 9 -27 0 -4 -7 -38 -10 -98 -9 l-90 2
4 36 c3 20 7 44 9 53 1 9 -3 19 -11 22 -8 3 -14 12 -14 21 0 22 -17 18 -23 -5
-4 -16 -11 -19 -36 -14 -24 5 -31 3 -29 -7 2 -8 -7 -15 -20 -17 -19 -3 -26 5
-46 50 -65 148 -106 335 -106 490 0 212 105 398 270 477 49 23 67 26 160 26
99 0 109 -2 173 -33 l67 -33 31 22 c96 68 234 74 354 14z m-1004 -52 c-126
-152 -159 -353 -101 -633 33 -165 82 -301 188 -522 2 -5 -6 -8 -17 -8 -12 0
-21 3 -21 8 0 17 -86 94 -112 99 -19 4 -40 22 -64 56 l-36 50 22 40 c44 78 17
177 -102 368 -93 149 -105 194 -67 243 26 33 79 37 79 6 0 -16 -7 -20 -30 -20
-39 0 -41 -30 -4 -59 78 -61 160 35 106 124 -15 24 -18 44 -14 97 4 58 1 73
-22 114 -14 25 -26 47 -26 48 0 0 39 2 88 2 54 1 100 7 122 17 53 23 54 21 11
-30z m1257 27 c36 -11 92 -20 128 -20 68 0 72 -3 50 -36 -26 -37 -38 -101 -26
-143 9 -34 8 -45 -10 -73 -58 -95 30 -198 105 -123 35 34 32 53 -7 57 -42 4
-45 32 -5 36 59 7 92 -63 63 -132 -8 -20 -40 -76 -70 -125 -105 -170 -120
-207 -121 -292 0 -62 4 -81 19 -98 19 -21 19 -22 -19 -76 -20 -30 -44 -55 -53
-55 -25 0 -78 -38 -103 -75 -15 -22 -32 -35 -46 -35 -13 0 -23 2 -23 4 0 1 25
55 55 118 99 209 150 397 161 593 11 187 -35 350 -126 449 -24 25 -41 46 -39
46 2 0 33 -9 67 -20z m-546 -236 c146 -49 223 -227 159 -369 -24 -54 -57 -95
-77 -95 -25 0 -175 82 -170 93 3 7 15 43 27 80 23 75 21 122 -8 166 l-17 26
-12 -40 c-6 -22 -22 -59 -34 -83 -27 -51 -23 -102 10 -137 l22 -23 -64 -35
c-109 -61 -113 -62 -147 -20 -119 145 -55 374 122 440 46 17 136 16 189 -3z
m-895 -30 c13 -14 26 -36 29 -50 14 -56 -41 -109 -91 -86 -34 15 -32 35 5 49
33 12 41 46 14 57 -36 14 -73 6 -93 -20 -16 -20 -21 -23 -21 -10 0 28 19 56
53 77 39 24 73 18 104 -17z m1736 -4 c15 -17 27 -40 27 -52 0 -20 -1 -19 -20
5 -26 32 -50 40 -84 28 -38 -15 -35 -50 4 -57 36 -8 39 -28 5 -50 -29 -19 -60
-11 -81 22 -38 56 25 152 90 140 17 -3 43 -20 59 -36z m-1755 -395 c14 -29 16
-95 4 -95 -20 0 -32 28 -32 72 0 53 11 61 28 23z m874 -8 c97 -61 154 -84 336
-133 22 -6 3 -24 -25 -24 -63 0 -255 75 -334 131 -25 18 -26 18 -64 -8 -104
-71 -332 -150 -357 -125 -16 16 -11 20 75 41 84 22 198 73 267 119 25 17 46
31 47 31 2 1 26 -14 55 -32z m782 -84 c-10 -7 -22 -13 -26 -13 -10 0 -1 63 15
105 12 30 12 30 20 -24 8 -47 7 -56 -9 -68z m-859 16 c13 -28 27 -28 40 0 5
11 14 20 20 18 12 -5 7 -47 -7 -64 -25 -31 -78 -2 -78 43 0 30 12 31 25 3z
m-741 -36 c16 -46 21 -93 10 -93 -3 0 -14 5 -25 10 -15 9 -19 22 -19 70 0 33
4 60 9 60 5 0 16 -21 25 -47z m1549 -80 c-9 -7 -20 -13 -25 -13 -14 0 -9 52 9
100 l18 45 7 -60 c7 -51 5 -62 -9 -72z m-843 93 c0 -23 37 -48 67 -44 20 2 32
12 43 35 21 45 30 41 28 -13 -3 -66 34 -85 74 -39 29 33 38 32 38 -8 0 -61 57
-80 84 -29 l15 27 1 -33 c0 -18 5 -41 12 -51 9 -15 7 -24 -8 -45 -17 -25 -23
-27 -68 -22 -29 3 -86 23 -138 49 l-88 43 -89 -44 c-58 -29 -107 -46 -138 -49
-44 -3 -50 -1 -72 28 -18 22 -21 33 -12 42 6 6 11 26 11 45 l0 34 29 -31 c46
-50 81 -36 81 31 0 45 5 46 36 13 27 -29 46 -31 69 -9 12 13 15 26 10 57 -5
28 -4 38 4 33 6 -4 11 -13 11 -20z m-30 -31 c0 -30 -3 -35 -23 -35 -26 0 -47
17 -47 39 0 12 3 11 18 -2 25 -23 32 -21 32 8 0 14 5 25 10 25 6 0 10 -16 10
-35z m204 10 c-7 -29 -2 -31 21 -9 21 21 30 12 15 -16 -22 -42 -73 -10 -56 36
9 25 27 16 20 -11z m-314 -55 c0 -53 -61 -52 -68 1 l-3 24 18 -23 c20 -24 33
-20 33 10 0 10 5 18 10 18 6 0 10 -14 10 -30z m420 10 c0 -25 16 -26 29 -3 14
27 26 7 13 -22 -13 -27 -31 -32 -50 -13 -15 15 -16 58 -2 58 6 0 10 -9 10 -20z
m-530 -45 c0 -26 -14 -40 -31 -29 -8 4 -8 9 0 17 6 6 11 19 11 30 0 10 5 15
10 12 6 -3 10 -17 10 -30z m644 3 c7 -34 3 -44 -13 -33 -13 7 -15 65 -2 65 5
0 11 -14 15 -32z m-266 -73 c38 -19 95 -41 126 -48 51 -11 56 -15 42 -26 -21
-17 -95 -3 -174 34 -66 31 -63 30 -126 1 -74 -35 -130 -50 -161 -42 -34 9 -24
23 23 31 20 3 71 23 112 44 41 21 78 39 82 39 5 1 39 -14 76 -33z m-472 -50
c7 -39 -1 -85 -16 -85 -5 0 -12 11 -16 25 -8 30 3 95 16 95 5 0 12 -16 16 -35z
m840 -9 c7 -40 -13 -88 -27 -65 -10 16 -12 70 -3 93 9 23 22 10 30 -28z m-892
22 c3 -7 6 -31 9 -53 4 -39 3 -41 -24 -43 -15 -1 -31 3 -35 9 -5 8 1 10 19 7
23 -5 25 -3 16 19 -12 32 -11 73 1 73 6 0 12 -6 14 -12z m832 4 c6 -4 14 -29
17 -57 l5 -50 -19 24 c-10 13 -19 31 -19 41 0 10 -3 25 -6 34 -6 17 4 21 22 8z
m-866 -32 c0 -5 -9 -10 -19 -10 -11 0 -23 5 -26 10 -4 6 5 10 19 10 14 0 26
-4 26 -10z m215 0 c4 -6 -10 -10 -34 -10 -23 0 -41 5 -41 10 0 6 15 10 34 10
19 0 38 -4 41 -10z m625 0 c0 -5 -21 -10 -46 -10 -27 0 -43 4 -39 10 3 6 24
10 46 10 21 0 39 -4 39 -10z m170 0 c0 -5 -7 -10 -15 -10 -8 0 -15 5 -15 10 0
6 7 10 15 10 8 0 15 -4 15 -10z m-1000 -30 c0 -5 -9 -10 -20 -10 -11 0 -20 5
-20 10 0 6 9 10 20 10 11 0 20 -4 20 -10z m235 0 c4 -6 -17 -10 -54 -10 -34 0
-61 4 -61 10 0 6 24 10 54 10 30 0 58 -4 61 -10z m600 0 c4 -6 -17 -10 -54
-10 -34 0 -61 4 -61 10 0 6 24 10 54 10 30 0 58 -4 61 -10z m150 0 c-3 -5 -10
-10 -16 -10 -5 0 -9 5 -9 10 0 6 7 10 16 10 8 0 12 -4 9 -10z m-425 -30 c19
-6 42 -14 50 -20 13 -8 12 -11 -5 -25 -11 -8 -29 -12 -40 -9 -51 14 -109 16
-151 4 -40 -11 -47 -11 -62 3 -19 20 -15 25 35 42 45 17 124 19 173 5z m295 0
c4 -6 -27 -10 -85 -10 -58 0 -89 4 -85 10 3 6 42 10 85 10 43 0 82 -4 85 -10z
m-815 -30 c0 -5 -11 -10 -25 -10 -14 0 -25 5 -25 10 0 6 11 10 25 10 14 0 25
-4 25 -10z m265 0 c4 -6 -35 -10 -109 -10 -71 0 -116 4 -116 10 0 6 43 10 109
10 63 0 112 -4 116 -10z m575 0 c0 -6 -47 -10 -121 -10 -77 0 -118 4 -114 10
4 6 55 10 121 10 69 0 114 -4 114 -10z m80 0 c0 -5 -9 -10 -20 -10 -11 0 -20
5 -20 10 0 6 9 10 20 10 11 0 20 -4 20 -10z m-885 -20 c0 -7 -6 -15 -12 -17
-8 -3 -13 4 -13 17 0 13 5 20 13 18 6 -3 12 -11 12 -18z m835 0 c0 -11 -4 -20
-9 -20 -14 0 -23 18 -16 30 10 17 25 11 25 -10z m-870 -10 c0 -5 -7 -10 -15
-10 -8 0 -15 5 -15 10 0 6 7 10 15 10 8 0 15 -4 15 -10z m305 0 c4 -6 -42 -10
-130 -10 -88 0 -134 4 -130 10 4 6 58 10 130 10 72 0 126 -4 130 -10z m178 4
c20 -4 37 -9 37 -13 0 -3 -18 -16 -40 -28 l-40 -21 -40 21 c-22 12 -40 25 -40
29 0 14 68 21 123 12z m352 -4 c4 -6 -43 -10 -135 -10 -92 0 -139 4 -135 10 4
6 60 10 135 10 75 0 131 -4 135 -10z m70 0 c-3 -5 -10 -10 -16 -10 -5 0 -9 5
-9 10 0 6 7 10 16 10 8 0 12 -4 9 -10z m-532 -37 c31 -18 29 -18 -163 -21
-107 -1 -200 0 -207 2 -7 3 -13 12 -13 21 0 13 25 15 175 15 149 0 181 -3 208
-17z m517 8 c0 -27 -33 -31 -221 -29 -189 3 -193 3 -164 20 25 14 59 17 208
18 97 0 177 -4 177 -9z m295 -68 c-5 -10 -8 -29 -9 -43 -1 -23 3 -25 49 -30
74 -7 72 -31 -6 -114 -60 -65 -62 -66 -81 -49 -19 17 -64 18 -685 21 -663 2
-666 2 -702 -19 l-36 -21 -63 67 c-80 84 -81 108 -7 113 56 4 67 14 54 49 -5
14 -9 29 -9 34 0 5 292 9 751 9 712 0 751 -1 744 -17z m-1507 -244 c35 -31
125 -79 150 -79 6 0 12 -4 12 -9 0 -19 -29 -30 -130 -51 -100 -20 -163 -35
-202 -46 -28 -8 -22 9 22 64 l40 50 -40 36 c-25 23 -36 38 -28 41 11 3 99 19
132 24 4 0 24 -13 44 -30z m1644 19 l70 -11 -41 -39 -42 -38 40 -48 c23 -27
41 -53 41 -58 0 -6 -39 -1 -92 12 -51 11 -128 29 -170 38 -82 18 -108 41 -60
52 41 10 83 33 126 70 45 39 36 37 128 22z m-1495 -43 c13 -41 4 -45 -52 -18
-42 20 -44 28 -7 41 43 16 48 14 59 -23z m684 26 c-8 -5 24 -11 88 -16 55 -4
101 -11 101 -16 0 -20 -47 -39 -100 -39 -57 0 -109 18 -60 21 14 1 31 1 38 0
6 -1 12 3 12 9 0 5 -2 10 -4 10 -2 0 -12 3 -22 7 -12 4 -15 3 -10 -5 4 -8 0
-12 -11 -12 -10 0 -29 -3 -43 -5 -23 -5 -23 -4 4 8 l28 14 -23 7 c-18 4 -30 0
-47 -21 l-24 -26 -21 27 c-18 23 -26 26 -46 18 l-25 -9 24 -6 c34 -9 21 -16
-17 -10 -18 3 -30 9 -27 14 8 14 -10 10 -32 -6 -19 -15 -19 -16 1 -14 11 1 31
1 45 0 49 -3 -3 -21 -60 -21 -52 0 -100 19 -100 39 0 5 46 13 103 19 l102 10
-106 -5 c-71 -3 -109 -1 -113 6 -5 8 46 11 176 11 107 0 177 -4 169 -9z m194
-1 c-25 -11 -92 -11 -125 0 -17 5 3 8 60 8 56 0 78 -2 65 -8z m416 0 c28 -16
23 -26 -21 -44 -63 -25 -69 -22 -50 28 10 28 37 34 71 16z m-693 -92 c2 -10
-8 -29 -22 -43 -31 -31 -51 -34 -36 -4 9 16 8 24 -4 38 -24 27 -20 33 21 29
26 -2 39 -8 41 -20z m102 15 c0 -3 -8 -15 -17 -25 -14 -16 -15 -23 -5 -39 18
-28 -4 -24 -33 6 -25 24 -31 45 -18 58 8 9 73 9 73 0z m-186 -19 c21 -8 21
-40 0 -48 -28 -11 -3 -28 33 -23 29 5 33 4 23 -8 -15 -18 -84 -20 -97 -2 -19
24 -21 45 -7 66 16 22 23 25 48 15z m227 -4 c22 -12 26 -59 7 -78 -17 -17 -83
-15 -98 3 -10 12 -6 13 23 8 36 -5 61 12 33 23 -27 10 -19 45 12 53 2 1 12 -4
23 -9z m-91 -101 c0 -3 -9 -14 -20 -24 -20 -18 -21 -18 -41 1 -19 20 -20 21
-2 52 l18 31 22 -27 c12 -15 22 -30 23 -33z"/>
<path d="M1370 2093 c0 -5 9 -18 20 -28 11 -10 20 -14 20 -8 0 5 -9 18 -20 28
-11 10 -20 14 -20 8z"/>
<path d="M1467 2083 c-4 -3 -7 -14 -7 -23 0 -13 -10 -17 -45 -18 -67 -1 -130
-13 -115 -22 16 -10 5 -43 -13 -37 -19 7 -47 -12 -41 -28 8 -19 -22 -31 -40
-16 -14 12 -32 0 -19 -13 13 -12 64 -6 68 9 16 52 14 49 33 31 10 -9 30 -16
44 -16 15 0 29 -6 31 -12 3 -7 6 11 6 40 1 45 4 52 21 52 17 0 20 -7 20 -50 0
-27 5 -50 10 -50 6 0 10 23 10 50 0 73 25 68 38 -7 l9 -58 2 53 c1 58 5 60 74
41 47 -13 50 -34 3 -25 -20 4 -37 2 -41 -4 -8 -12 24 -80 37 -80 6 0 3 11 -6
25 -15 22 -22 55 -12 55 3 0 16 -4 30 -10 20 -7 26 -17 29 -52 3 -38 4 -36 5
15 2 58 10 67 41 48 9 -6 11 -18 7 -34 -4 -16 -1 -29 9 -37 13 -11 15 -7 15
25 0 30 3 36 16 31 9 -3 18 -6 20 -6 2 0 4 -27 4 -60 0 -33 3 -60 8 -60 4 0 5
25 4 55 -3 41 0 55 10 55 27 0 41 -17 35 -42 -4 -15 -1 -32 8 -44 8 -11 15
-14 15 -6 0 6 9 12 20 12 15 0 20 -7 20 -29 0 -17 5 -33 10 -36 6 -4 10 15 10
49 0 50 2 56 20 56 26 0 36 -25 19 -46 -11 -14 -10 -19 10 -36 14 -10 30 -17
38 -14 7 3 13 -1 13 -9 0 -8 4 -15 9 -15 5 0 11 27 13 59 l3 59 -51 6 c-58 7
-182 43 -201 58 -7 6 -13 19 -13 28 0 10 6 21 13 23 7 3 5 6 -5 6 -13 1 -18
-7 -18 -24 0 -14 -4 -25 -9 -25 -29 0 -82 29 -123 67 -44 40 -83 54 -101 36z
m83 -34 l35 -30 -45 7 c-56 8 -60 10 -60 35 0 28 29 23 70 -12z m-190 -49 c0
-33 -18 -47 -47 -36 -13 6 -14 9 -5 15 8 4 15 17 17 27 2 10 4 20 4 22 1 1 8
2 16 2 10 0 15 -10 15 -30z m454 -76 c9 -3 16 -15 16 -26 0 -28 -34 -19 -38
10 -4 24 -2 25 22 16z m136 -59 c0 -31 -3 -35 -25 -35 -25 0 -33 14 -15 25 6
3 10 15 10 26 0 10 7 19 15 19 10 0 15 -11 15 -35z"/>
<path d="M750 2040 l25 -19 -30 -11 c-200 -74 -247 -88 -320 -99 l-60 -9 48
-1 c55 -1 62 -16 12 -25 -19 -4 -37 -11 -41 -17 -7 -12 22 -59 38 -59 6 0 4 8
-5 18 -23 25 -21 39 6 46 35 9 37 8 37 -30 0 -19 4 -33 9 -30 5 3 7 25 4 48
-5 33 -2 44 12 55 29 20 37 16 33 -19 -2 -18 2 -33 10 -35 6 -3 12 2 12 11 0
9 8 16 20 16 13 0 20 -7 20 -20 0 -11 5 -20 10 -20 6 0 10 24 10 53 0 49 2 53
30 64 27 10 30 9 30 -8 0 -10 -7 -19 -15 -19 -22 0 -19 -13 9 -39 14 -13 26
-18 30 -12 4 5 -2 14 -11 20 -14 8 -16 12 -5 22 6 7 12 23 12 35 0 13 8 24 20
27 25 7 27 -20 3 -39 -17 -13 -17 -14 0 -8 13 5 17 1 17 -20 0 -14 5 -26 10
-26 6 0 10 25 10 55 0 42 3 55 15 55 11 0 15 -12 15 -45 0 -25 5 -45 10 -45 6
0 10 20 10 44 0 24 3 51 6 60 4 10 1 16 -9 16 -8 0 -20 7 -27 15 -7 8 -18 15
-24 15 -6 0 0 -9 14 -20z m-172 -127 c-5 -26 -38 -29 -38 -4 0 15 6 21 21 21
14 0 19 -5 17 -17z"/>
<path d="M914 2044 c14 -5 17 -12 12 -34 -3 -19 -1 -30 9 -34 8 -3 15 -1 15 4
0 6 9 10 20 10 15 0 20 -7 20 -25 0 -14 5 -25 10 -25 6 0 10 23 10 51 0 64 24
63 28 -2 4 -72 15 -78 22 -14 4 33 5 62 3 64 -2 2 -40 6 -85 7 -46 2 -75 1
-64 -2z m76 -24 c0 -13 -7 -20 -20 -20 -13 0 -20 7 -20 20 0 13 7 20 20 20 13
0 20 -7 20 -20z"/>
<path d="M1250 2010 c-8 -5 -10 -10 -5 -10 6 0 17 5 25 10 8 5 11 10 5 10 -5
0 -17 -5 -25 -10z"/>
<path d="M1190 1990 c-21 -7 -21 -8 -5 -9 11 0 27 4 35 9 18 11 5 11 -30 0z"/>
<path d="M1074 905 c-13 -32 23 -63 40 -36 4 5 -3 7 -15 4 -17 -5 -20 -2 -17
13 2 10 11 18 21 18 9 -1 14 2 11 7 -8 14 -34 10 -40 -6z"/>
<path d="M1177 913 c-13 -12 -7 -41 10 -47 9 -4 23 0 31 8 13 12 13 18 2 30
-13 17 -32 21 -43 9z m39 -14 c10 -17 -13 -36 -27 -22 -12 12 -4 33 11 33 5 0
12 -5 16 -11z"/>
<path d="M980 865 c-10 -12 -10 -18 0 -30 16 -19 39 -19 46 0 6 15 -11 45 -26
45 -4 0 -13 -7 -20 -15z m36 -6 c10 -17 -13 -36 -27 -22 -12 12 -4 33 11 33 5
0 12 -5 16 -11z"/>
<path d="M1277 874 c-10 -10 -9 -42 2 -48 18 -11 42 6 39 28 -3 21 -28 33 -41
20z m31 -21 c-5 -25 -28 -28 -28 -4 0 12 6 21 16 21 9 0 14 -7 12 -17z"/>
<path d="M886 833 c-4 -9 0 -23 9 -32 13 -14 17 -14 32 1 13 14 14 20 3 32
-16 21 -36 20 -44 -1z m40 -4 c10 -17 -13 -36 -27 -22 -12 12 -4 33 11 33 5 0
12 -5 16 -11z"/>
<path d="M1363 834 c-3 -8 2 -23 11 -32 14 -15 18 -15 31 -1 9 9 13 23 9 32
-8 21 -43 22 -51 1z m43 -5 c10 -17 -13 -36 -27 -22 -12 12 -4 33 11 33 5 0
12 -5 16 -11z"/>
<path d="M780 455 c0 -42 -3 -55 -15 -55 -8 0 -15 -4 -15 -10 0 -16 47 -11 54
6 3 9 6 38 6 65 0 37 -4 49 -15 49 -12 0 -15 -13 -15 -55z"/>
<path d="M847 457 c-20 -62 -21 -77 -7 -77 6 0 10 7 10 15 0 9 9 15 24 15 13
0 26 -7 30 -15 3 -8 12 -15 20 -15 12 0 10 12 -7 65 -27 83 -47 86 -70 12z
m43 -13 c0 -8 -6 -14 -14 -14 -9 0 -12 7 -9 20 6 22 23 18 23 -6z"/>
<path d="M960 445 c0 -37 4 -65 10 -65 6 0 10 28 10 65 0 37 -4 65 -10 65 -6
0 -10 -28 -10 -65z"/>
<path d="M1010 446 c0 -52 3 -66 15 -66 9 0 15 9 15 24 0 19 6 25 26 28 15 2
32 11 38 21 18 28 -4 52 -53 55 l-41 3 0 -65z m70 24 c0 -13 -7 -20 -20 -20
-13 0 -20 7 -20 20 0 13 7 20 20 20 13 0 20 -7 20 -20z"/>
<path d="M1130 464 c0 -60 14 -84 48 -84 40 0 52 17 52 77 0 69 -18 69 -22 1
-3 -45 -6 -53 -23 -53 -17 0 -20 8 -23 53 -2 37 -7 52 -18 52 -10 0 -14 -12
-14 -46z"/>
<path d="M1260 445 c0 -51 3 -65 15 -65 9 0 15 9 15 25 0 15 6 25 15 25 8 0
17 -11 21 -25 3 -14 12 -25 20 -25 17 0 17 1 4 34 -6 16 -6 27 0 31 16 10 11
52 -6 59 -9 3 -31 6 -50 6 l-34 0 0 -65z m73 39 c11 -11 -5 -34 -24 -34 -12 0
-19 7 -19 20 0 19 28 28 43 14z"/>
<path d="M1390 445 c0 -51 3 -65 15 -65 12 0 15 14 15 65 0 51 -3 65 -15 65
-12 0 -15 -14 -15 -65z"/>
<path d="M1477 503 c-2 -5 -12 -32 -22 -61 -17 -52 -13 -84 6 -49 12 21 48 22
55 2 4 -8 13 -15 21 -15 8 0 13 6 11 13 -3 6 -13 36 -22 65 -16 46 -37 66 -49
45z m23 -53 c0 -11 -6 -20 -14 -20 -9 0 -12 7 -9 20 3 11 9 20 14 20 5 0 9 -9
9 -20z"/>
</g>
</svg>
